<?xml version="1.0" encoding="UTF-8" standalone="no"?>
<svg
   width="24"
   height="24"
   viewBox="0 0 24 24"
   fill="none"
   version="1.1"
   id="svg1"
   xmlns="http://www.w3.org/2000/svg"
   xmlns:svg="http://www.w3.org/2000/svg">
  <defs
     id="defs1">
    <filter
       style="color-interpolation-filters:sRGB"
       id="filter8"
       x="-0.003142046"
       y="-0.15058205"
       width="1.0062841"
       height="1.3011641">
      <feGaussianBlur
         stdDeviation="0.01 0.3"
         result="fbSourceGraphic"
         id="feGaussianBlur8" />
      <feColorMatrix
         result="fbSourceGraphicAlpha"
         in="fbSourceGraphic"
         values="0 0 0 -1 0 0 0 0 -1 0 0 0 0 -1 0 0 0 0 1 0"
         id="feColorMatrix8" />
      <feGaussianBlur
         id="feGaussianBlur9"
         stdDeviation="0.01 0.3"
         result="blur"
         in="fbSourceGraphic" />
    </filter>
    <filter
       style="color-interpolation-filters:sRGB"
       id="filter19"
       x="-0.10997809"
       y="-0.11413209"
       width="1.2199562"
       height="1.2282642">
      <feFlood
         result="flood"
         in="SourceGraphic"
         flood-opacity="0.717647"
         flood-color="rgb(0,0,0)"
         id="feFlood18" />
      <feGaussianBlur
         result="blur"
         in="SourceGraphic"
         stdDeviation="0.700000"
         id="feGaussianBlur18" />
      <feOffset
         result="offset"
         in="blur"
         dx="0.000000"
         dy="0.000000"
         id="feOffset18" />
      <feComposite
         result="comp1"
         operator="in"
         in="flood"
         in2="offset"
         id="feComposite18" />
      <feComposite
         result="comp2"
         operator="over"
         in="SourceGraphic"
         in2="comp1"
         id="feComposite19" />
    </filter>
  </defs>
  <path
     d="m 10.3073,7.21989 c 0.6421,-1.60068 0.9631,-2.40103 1.4847,-2.51195 0.1371,-0.02917 0.2789,-0.02917 0.416,0 0.5216,0.11092 0.8426,0.91127 1.4847,2.51195 0.3652,0.91028 0.5477,1.36542 0.8893,1.67499 0.0959,0.08683 0.1999,0.16416 0.3106,0.23091 0.3949,0.23798 0.8877,0.28212 1.8735,0.37041 1.6688,0.14945 2.5032,0.22417 2.758,0.6999 0.0527,0.0985 0.0886,0.2052 0.1061,0.3156 0.0845,0.533 -0.5289,1.0911 -1.7557,2.2072 l -0.3407,0.31 c -0.5735,0.5218 -0.8603,0.7827 -1.0262,1.1083 -0.0995,0.1953 -0.1662,0.4056 -0.1974,0.6226 -0.0521,0.3617 0.0318,0.7402 0.1998,1.4972 l 0.06,0.2704 c 0.3012,1.3576 0.4518,2.0363 0.2638,2.37 -0.1689,0.2997 -0.4799,0.4915 -0.8235,0.5079 -0.3825,0.0183 -0.9215,-0.4209 -1.9995,-1.2993 -0.7102,-0.5787 -1.0653,-0.8681 -1.4595,-0.9811 -0.3603,-0.1033 -0.7423,-0.1033 -1.1025,0 -0.3943,0.113 -0.7494,0.4024 -1.45957,0.9811 C 8.91125,18.9844 8.37227,19.4236 7.98975,19.4053 7.64615,19.3889 7.3351,19.1971 7.16623,18.8974 6.97824,18.5637 7.12884,17.885 7.43004,16.5274 l 0.06,-0.2704 C 7.658,15.5 7.74197,15.1215 7.68986,14.7598 7.6586,14.5428 7.59188,14.3325 7.49238,14.1372 7.32651,13.8116 7.03974,13.5507 6.46619,13.0289 l -0.34067,-0.31 C 4.89873,11.6028 4.28534,11.0447 4.36981,10.5117 4.3873,10.4013 4.42318,10.2946 4.47595,10.1961 4.73075,9.72037 5.56514,9.64565 7.2339,9.4962 8.21968,9.40791 8.71257,9.36377 9.10741,9.12579 9.21816,9.05904 9.32217,8.98171 9.41799,8.89488 9.7596,8.58531 9.94217,8.13017 10.3073,7.21989 Z"
     fill="#F5C044"
     stroke="#F5C044"
     stroke-width="2"
     id="path1"
     style="fill:#f5c044;fill-opacity:1;stroke:none;stroke-width:1;stroke-linecap:butt;stroke-linejoin:miter;stroke-dasharray:none;filter:url(#filter19)" />
  <path
     d="m 19.095703,11.558594 c 0.395247,-0.423145 0.58365,-0.74099 0.535156,-1.046875 -0.0175,-0.1104 -0.05472,-0.217907 -0.107422,-0.316406 C 19.268638,9.719583 18.434423,9.6455436 16.765625,9.4960938 15.779826,9.4078038 15.287478,9.3629798 14.892578,9.125 14.781878,9.0582501 14.677931,8.9813612 14.582031,8.8945313 14.240432,8.5849616 14.058559,8.1309822 13.693359,7.2207031 13.05126,5.6200247 12.728631,4.8179511 12.207031,4.7070312 c -0.1371,-0.02917 -0.276962,-0.02917 -0.414062,0 -0.5216,0.1109199 -0.844229,0.9129935 -1.486328,2.5136719 C 9.941511,8.1309822 9.7595784,8.5849616 9.4179688,8.8945313 9.3221488,8.9813612 9.2181718,9.0582501 9.1074219,9.125 8.7125823,9.3629798 8.220154,9.4078038 7.234375,9.4960938 5.5656167,9.6455436 4.7313622,9.719583 4.4765625,10.195313 c -0.05277,0.0985 -0.089932,0.206006 -0.1074219,0.316406 -0.048477,0.305885 0.1399109,0.62373 0.5351563,1.046875 A 9.8678818,8.7198181 0 0 0 12,14.248047 9.8678818,8.7198181 0 0 0 19.095703,11.558594 Z"
     style="display:inline;fill:#fbe6b4;fill-rule:evenodd;stroke-width:1.95029;filter:url(#filter8)"
     id="path8" />
</svg>
